<svg width="12" height="12" viewBox="0 0 12 12" fill="none" xmlns="http://www.w3.org/2000/svg">
<path d="M0 9.64032V11.6667C0 11.8534 0.146646 12 0.333288 12H2.35968C2.44634 12 2.53299 11.9666 2.59298 11.9L9.872 4.62766L7.37234 2.12801L0.0999864 9.40032C0.0333289 9.46704 0 9.54696 0 9.64032ZM11.805 2.6946C11.8669 2.63293 11.9159 2.55968 11.9494 2.47904C11.9828 2.39841 12 2.31196 12 2.22466C12 2.13736 11.9828 2.05092 11.9494 1.97028C11.9159 1.88964 11.8669 1.81639 11.805 1.75473L10.2453 0.194936C10.1836 0.133142 10.1104 0.0841168 10.0298 0.0506674C9.94912 0.0172176 9.86264 0 9.77536 0C9.68808 0 9.6016 0.0172176 9.52096 0.0506674C9.44032 0.0841168 9.36704 0.133142 9.30544 0.194936L8.0856 1.41477L10.5852 3.91443L11.805 2.6946Z" fill="white" fill-opacity="0.5"/>
</svg>
