<svg width="192" height="32" viewBox="0 0 192 32" fill="none" xmlns="http://www.w3.org/2000/svg">
<path d="M21.7077 18.7802H21.1001C20.4189 18.7802 20.023 18.458 19.9126 17.8136L16.5432 0L12.3729 1.35328L2.70657 17.7308C2.52245 18.0806 2.23706 18.343 1.85041 18.5179C1.46376 18.6928 1.0771 18.7802 0.69045 18.7802H0.248566L0 20.0507H6.9045L7.15306 18.7802H6.54546C6.2877 18.7802 6.07136 18.725 5.89645 18.6145C5.72153 18.5041 5.63407 18.3291 5.63407 18.0898C5.63407 17.8688 5.70772 17.6387 5.85501 17.3993L7.12545 15.1623H13.8366L14.168 17.5098L14.1957 17.786C14.1957 18.4488 13.809 18.7802 13.0357 18.7802H12.4281L12.1795 20.0507H21.4592L21.7077 18.7802ZM13.5604 13.3395H8.14731L12.4557 5.77216L13.5604 13.3395ZM22.0668 18.7802L21.8182 20.0507H31.4845C34.8171 20.0507 37.4178 19.2635 39.2866 17.6893C41.1554 16.1151 42.4212 13.6801 43.0841 10.3844C43.3234 9.26123 43.4431 8.21175 43.4431 7.23591C43.4431 5.04489 42.7895 3.41082 41.4822 2.33372C40.175 1.25662 38.1589 0.718068 35.4339 0.718068H25.74L25.519 1.9885H26.3476C27.1761 1.9885 27.5904 2.25547 27.5904 2.78942V3.09322L24.6076 17.7031C24.4419 18.4212 23.8804 18.7802 22.9229 18.7802H22.0668ZM31.7883 18.2555H29.6893L32.893 2.51324H35.0196C36.0507 2.51324 36.8378 2.87687 37.381 3.60415C37.9241 4.33142 38.1957 5.41313 38.1957 6.84926C38.1957 7.84351 38.0576 9.02188 37.7814 10.3844C37.2475 12.9805 36.465 14.9413 35.4339 16.267C34.4028 17.5927 33.1876 18.2555 31.7883 18.2555ZM62.9138 18.7802H62.3062C61.6249 18.7802 61.2291 18.458 61.1186 17.8136L57.7492 0L53.5789 1.35328L43.9126 17.7308C43.7285 18.0806 43.4431 18.343 43.0564 18.5179C42.6698 18.6928 42.2831 18.7802 41.8965 18.7802H41.4546L41.206 20.0507H48.1105L48.3591 18.7802H47.7515C47.4937 18.7802 47.2774 18.725 47.1025 18.6145C46.9276 18.5041 46.8401 18.3291 46.8401 18.0898C46.8401 17.8688 46.9138 17.6387 47.0611 17.3993L48.3315 15.1623H55.0427L55.3741 17.5098L55.4017 17.786C55.4017 18.4488 55.015 18.7802 54.2417 18.7802H53.6341L53.3856 20.0507H62.6652L62.9138 18.7802ZM54.7665 13.3395H49.3534L53.6618 5.77216L54.7665 13.3395ZM63.3004 18.7802L63.0519 20.0507H69.6526L69.9011 18.7802H69.045C68.6215 18.7802 68.3131 18.7158 68.1198 18.5869C67.9264 18.458 67.8298 18.2647 67.8298 18.0069C67.8298 17.878 67.839 17.7768 67.8574 17.7031L70.4259 5.02648L73.0496 18.0069H76.1428L84.2901 4.94362L81.694 17.7031C81.5283 18.4212 80.9667 18.7802 80.0093 18.7802H79.1808L78.9322 20.0507H88.709L88.9575 18.7802H88.1014C87.2913 18.7802 86.8862 18.5225 86.8862 18.0069C86.8862 17.878 86.8954 17.7768 86.9138 17.7031L89.8966 3.09322C90.0439 2.35674 90.5962 1.9885 91.5536 1.9885H92.4098L92.6584 0.718068H84.7872L76.778 13.7538L74.2372 0.718068H66.9736L66.7527 1.9885H67.5812C68.3914 1.9885 68.7964 2.25547 68.7964 2.78942V3.09322L65.8137 17.7031C65.7216 18.0714 65.5467 18.343 65.2889 18.5179C65.0312 18.6928 64.6537 18.7802 64.1566 18.7802H63.3004ZM93.7078 2.84465L93.7907 9.0587H95.5306L98.2648 2.81704C98.32 2.59609 98.3477 2.29229 98.3477 1.90564C98.3477 1.42693 98.205 1.06329 97.9196 0.814731C97.6342 0.566169 97.1417 0.441889 96.442 0.441889C95.5398 0.441889 94.9046 0.639817 94.5364 1.03567C94.1681 1.43153 93.892 2.03453 93.7078 2.84465ZM101.538 19.8988C102.357 20.1841 103.429 20.3268 104.755 20.3268C107.112 20.3268 109.096 19.8619 110.707 18.9321C112.318 18.0023 113.335 16.5432 113.759 14.5547C113.869 14.0023 113.924 13.496 113.924 13.0357C113.924 12.023 113.685 11.1899 113.206 10.5363C112.727 9.88264 112.157 9.38091 111.494 9.03108C110.831 8.68126 109.956 8.31302 108.87 7.92636C107.729 7.5213 106.882 7.13925 106.329 6.78022C105.777 6.42118 105.501 5.91025 105.501 5.24742C105.501 5.15536 105.519 4.99886 105.556 4.77791C105.722 3.9862 106.168 3.3786 106.895 2.95513C107.623 2.53165 108.401 2.31991 109.229 2.31991C110.371 2.31991 111.319 2.6145 112.074 3.20369C112.829 3.79287 113.206 4.74109 113.206 6.04834L113.179 6.54546H114.587L115.83 0.579979H114.173L113.952 1.65708C113.952 1.67549 113.947 1.70771 113.938 1.75374C113.929 1.79977 113.915 1.85041 113.897 1.90564C113.878 1.96088 113.841 1.9885 113.786 1.9885L113.565 1.90564C112.847 1.46376 112.115 1.10932 111.37 0.84235C110.624 0.575376 109.625 0.441889 108.373 0.441889C106.108 0.441889 104.244 0.883776 102.78 1.76755C101.317 2.65133 100.41 3.94937 100.06 5.66169C99.9863 6.08516 99.9495 6.50864 99.9495 6.93212C99.9495 7.8343 100.17 8.5892 100.612 9.19679C101.054 9.80439 101.588 10.2831 102.214 10.6329C102.84 10.9828 103.669 11.3602 104.7 11.7653C105.528 12.0967 106.182 12.3867 106.661 12.6352C107.139 12.8838 107.535 13.1922 107.848 13.5604C108.161 13.9287 108.318 14.3798 108.318 14.9137C108.318 15.1715 108.299 15.3648 108.263 15.4937C108.042 16.5616 107.54 17.3211 106.757 17.7722C105.975 18.2233 105.031 18.4488 103.926 18.4488C102.656 18.4488 101.588 18.1128 100.723 17.4408C99.8574 16.7687 99.4708 15.6962 99.5629 14.2233H98.1267L96.9115 20.1888H98.5686L98.8172 18.9183C98.8356 18.8631 98.8678 18.8125 98.9138 18.7664C98.9599 18.7204 99.0105 18.6974 99.0657 18.6974C99.1762 18.6974 99.2683 18.725 99.3419 18.7802C99.9863 19.2405 100.718 19.6134 101.538 19.8988ZM121.74 18.0898L121.353 20.0507H136.101L137.703 14.1128H136.599C136.249 14.8309 135.876 15.4062 135.48 15.8389C135.084 16.2716 134.546 16.4879 133.864 16.4879H126.463L126.49 16.3222C126.619 15.7699 127.006 15.2635 127.65 14.8032C128.295 14.3429 129.206 13.8182 130.385 13.229L131.627 12.5662C133.119 11.7376 134.325 11.0288 135.245 10.4396C136.166 9.85042 137.013 9.15076 137.786 8.34063C138.559 7.53051 139.047 6.64673 139.25 5.68931C139.324 5.13695 139.36 4.7595 139.36 4.55697C139.36 3.15766 138.794 2.12198 137.662 1.44995C136.53 0.777907 135.052 0.441889 133.229 0.441889C131.83 0.441889 130.546 0.649023 129.376 1.06329C128.207 1.47756 127.254 2.03453 126.518 2.73418C125.782 3.43384 125.33 4.19794 125.165 5.02648C125.146 5.10012 125.137 5.21059 125.137 5.35789C125.137 5.81819 125.326 6.17262 125.703 6.42118C126.081 6.66975 126.536 6.79403 127.07 6.79403C127.604 6.79403 128.097 6.67435 128.548 6.43499C128.999 6.19564 129.261 5.88263 129.335 5.49598C129.556 4.37285 129.91 3.55812 130.398 3.05179C130.886 2.54546 131.6 2.29229 132.539 2.29229C133.901 2.29229 134.582 2.9183 134.582 4.17032C134.582 4.48332 134.546 4.79633 134.472 5.10933C134.251 6.15881 133.593 7.19449 132.497 8.21635C131.402 9.23822 129.924 10.412 128.065 11.7376C128.009 11.7745 127.724 11.977 127.208 12.3452C126.177 13.0817 125.349 13.7031 124.723 14.2095C124.097 14.7158 123.512 15.2958 122.969 15.9494C122.426 16.603 122.016 17.3165 121.74 18.0898ZM140.189 14.0023C140.189 18.2187 142.288 20.3268 146.486 20.3268C149.229 20.3268 151.411 19.4569 153.031 17.7169C154.652 15.977 155.784 13.5328 156.428 10.3844C156.686 9.04029 156.815 7.84351 156.815 6.79403C156.815 2.55927 154.725 0.441889 150.546 0.441889C145.261 0.441889 141.947 3.75605 140.603 10.3844C140.327 11.6732 140.189 12.8792 140.189 14.0023ZM151.153 10.3844C150.03 15.7423 148.603 18.4212 146.872 18.4212C145.786 18.4212 145.243 17.4085 145.243 15.3832C145.243 13.9471 145.455 12.2808 145.878 10.3844C146.965 4.98965 148.391 2.29229 150.159 2.29229C151.245 2.29229 151.788 3.31416 151.788 5.35789C151.788 6.55467 151.577 8.23016 151.153 10.3844ZM156.318 18.0898L155.931 20.0507H170.679L172.281 14.1128H171.176C170.826 14.8309 170.454 15.4062 170.058 15.8389C169.662 16.2716 169.123 16.4879 168.442 16.4879H161.04L161.068 16.3222C161.197 15.7699 161.584 15.2635 162.228 14.8032C162.872 14.3429 163.784 13.8182 164.962 13.229L166.205 12.5662C167.696 11.7376 168.902 11.0288 169.823 10.4396C170.744 9.85042 171.591 9.15076 172.364 8.34063C173.137 7.53051 173.625 6.64673 173.828 5.68931C173.901 5.13695 173.938 4.7595 173.938 4.55697C173.938 3.15766 173.372 2.12198 172.24 1.44995C171.107 0.777907 169.63 0.441889 167.807 0.441889C166.408 0.441889 165.123 0.649023 163.954 1.06329C162.785 1.47756 161.832 2.03453 161.096 2.73418C160.359 3.43384 159.908 4.19794 159.742 5.02648C159.724 5.10012 159.715 5.21059 159.715 5.35789C159.715 5.81819 159.904 6.17262 160.281 6.42118C160.658 6.66975 161.114 6.79403 161.648 6.79403C162.182 6.79403 162.675 6.67435 163.126 6.43499C163.577 6.19564 163.839 5.88263 163.913 5.49598C164.134 4.37285 164.488 3.55812 164.976 3.05179C165.464 2.54546 166.177 2.29229 167.116 2.29229C168.479 2.29229 169.16 2.9183 169.16 4.17032C169.16 4.48332 169.123 4.79633 169.05 5.10933C168.829 6.15881 168.171 7.19449 167.075 8.21635C165.98 9.23822 164.502 10.412 162.642 11.7376C162.587 11.7745 162.302 11.977 161.786 12.3452C160.755 13.0817 159.927 13.7031 159.301 14.2095C158.675 14.7158 158.09 15.2958 157.547 15.9494C157.004 16.603 156.594 17.3165 156.318 18.0898ZM173.607 18.0898L173.22 20.0507H187.968L189.57 14.1128H188.465C188.115 14.8309 187.742 15.4062 187.347 15.8389C186.951 16.2716 186.412 16.4879 185.731 16.4879H178.329L178.357 16.3222C178.486 15.7699 178.873 15.2635 179.517 14.8032C180.161 14.3429 181.073 13.8182 182.251 13.229L183.494 12.5662C184.985 11.7376 186.191 11.0288 187.112 10.4396C188.032 9.85042 188.879 9.15076 189.653 8.34063C190.426 7.53051 190.914 6.64673 191.116 5.68931C191.19 5.13695 191.227 4.7595 191.227 4.55697C191.227 3.15766 190.661 2.12198 189.528 1.44995C188.396 0.777907 186.919 0.441889 185.096 0.441889C183.696 0.441889 182.412 0.649023 181.243 1.06329C180.074 1.47756 179.121 2.03453 178.385 2.73418C177.648 3.43384 177.197 4.19794 177.031 5.02648C177.013 5.10012 177.004 5.21059 177.004 5.35789C177.004 5.81819 177.192 6.17262 177.57 6.42118C177.947 6.66975 178.403 6.79403 178.937 6.79403C179.471 6.79403 179.963 6.67435 180.415 6.43499C180.866 6.19564 181.128 5.88263 181.202 5.49598C181.423 4.37285 181.777 3.55812 182.265 3.05179C182.753 2.54546 183.466 2.29229 184.405 2.29229C185.768 2.29229 186.449 2.9183 186.449 4.17032C186.449 4.48332 186.412 4.79633 186.339 5.10933C186.118 6.15881 185.459 7.19449 184.364 8.21635C183.268 9.23822 181.791 10.412 179.931 11.7376C179.876 11.7745 179.591 11.977 179.075 12.3452C178.044 13.0817 177.215 13.7031 176.589 14.2095C175.963 14.7158 175.379 15.2958 174.836 15.9494C174.293 16.603 173.883 17.3165 173.607 18.0898Z" fill="#44FFD1"/>
<path d="M71.4601 28.2346H0V29.1552H71.4601V28.2346Z" fill="#44FFD1"/>
<path d="M76.1717 31.8021C76.2545 31.8896 76.3696 31.9356 76.5169 31.9356H78.487C79.2005 31.9356 79.8081 31.7975 80.3144 31.5167C80.8207 31.2359 81.2074 30.8355 81.4697 30.3153C81.7321 29.7952 81.8656 29.1692 81.8656 28.4373C81.8656 27.4983 81.594 26.7664 81.0555 26.2371C80.5169 25.7077 79.7574 25.4454 78.7816 25.4454H76.9956C76.8529 25.4454 76.7379 25.4868 76.6504 25.5651C76.5629 25.6433 76.5123 25.7584 76.5077 25.9057L76.0658 31.4477C76.052 31.595 76.0888 31.7147 76.1717 31.8021ZM78.4226 31.1439H77.0417L77.4283 26.2371H78.6895C79.426 26.2371 79.9784 26.4212 80.3466 26.7894C80.7149 27.1577 80.899 27.7054 80.899 28.4281C80.899 29.3165 80.6918 29.9931 80.2776 30.4534C79.8633 30.9137 79.2465 31.1439 78.4226 31.1439ZM83.7252 31.7331C84.052 31.9126 84.4295 32 84.8668 32C85.3225 32 85.7183 31.8988 86.0589 31.6962C86.3996 31.4937 86.6619 31.2083 86.8506 30.8355C87.0394 30.4626 87.1314 30.0254 87.1314 29.5236C87.1314 29.0817 87.044 28.6951 86.8645 28.3683C86.6849 28.0415 86.4364 27.7837 86.1096 27.6042C85.7828 27.4247 85.4007 27.3326 84.9588 27.3326C84.5123 27.3326 84.1165 27.4339 83.7758 27.6364C83.4352 27.8389 83.1729 28.1289 82.9841 28.5018C82.7954 28.8746 82.7033 29.3165 82.7033 29.8182C82.7033 30.2555 82.7908 30.6376 82.9703 30.969C83.1498 31.3004 83.3984 31.5536 83.7252 31.7331ZM85.8518 30.7849C85.6263 31.1025 85.2994 31.2636 84.876 31.2636C84.4755 31.2636 84.1717 31.1439 83.96 30.9045C83.7482 30.6652 83.6424 30.3107 83.6424 29.8458C83.6424 29.3073 83.7574 28.8746 83.983 28.557C84.2085 28.2394 84.5399 28.0783 84.968 28.0783C85.3593 28.0783 85.6631 28.198 85.8748 28.4419C86.0866 28.6859 86.1924 29.0357 86.1924 29.496C86.1924 30.0346 86.0773 30.4672 85.8518 30.7849ZM94.0866 27.5996C93.7966 27.4201 93.4606 27.3326 93.0877 27.3326C92.7885 27.3326 92.5077 27.397 92.2546 27.5259C92.0014 27.6548 91.7943 27.8343 91.6424 28.0599L91.8265 25.8044C91.8311 25.6755 91.7989 25.5743 91.7206 25.5006C91.6424 25.427 91.5365 25.3901 91.403 25.3901C91.2695 25.3901 91.1498 25.4316 91.0532 25.5098C90.9565 25.5881 90.9013 25.6939 90.8967 25.8228L90.4364 31.5397C90.4318 31.6824 90.4686 31.7883 90.5469 31.8666C90.6251 31.9448 90.7356 31.9816 90.8691 31.9816C91.0026 31.9816 91.1176 31.9448 91.2097 31.8666C91.3017 31.7883 91.3524 31.6824 91.357 31.5397L91.3846 31.1531C91.5181 31.4247 91.716 31.6318 91.9692 31.7791C92.2223 31.9264 92.5261 32 92.876 32C93.2948 32 93.6631 31.8942 93.9853 31.687C94.3075 31.4799 94.5561 31.1853 94.7356 30.8079C94.9151 30.4304 95.0026 29.9977 95.0026 29.5052C95.0026 29.0679 94.9243 28.6859 94.7632 28.3591C94.6021 28.0323 94.3766 27.7791 94.0866 27.5996ZM93.7091 30.8033C93.479 31.1117 93.1568 31.2636 92.7471 31.2636C92.3466 31.2636 92.0428 31.1393 91.8265 30.8907C91.6101 30.6422 91.5043 30.2831 91.5043 29.809C91.5043 29.2751 91.6194 28.8516 91.8541 28.5432C92.0889 28.2348 92.4065 28.0783 92.8115 28.0783C93.212 28.0783 93.5158 28.2026 93.7321 28.4557C93.9485 28.7089 94.0543 29.0679 94.0543 29.5328C94.0543 30.0714 93.9393 30.4949 93.7091 30.8033ZM99.8127 29.7492C99.8771 29.6847 99.9094 29.5927 99.9094 29.4684C99.9094 28.7733 99.7436 28.244 99.4168 27.8804C99.09 27.5167 98.6159 27.3326 98.0037 27.3326C97.5618 27.3326 97.1706 27.4385 96.8346 27.6456C96.4985 27.8527 96.2362 28.1473 96.0474 28.5248C95.8587 28.9022 95.7667 29.3349 95.7667 29.8182C95.7667 30.2555 95.8587 30.6376 96.0382 30.969C96.2178 31.3004 96.4755 31.5536 96.8069 31.7331C97.1384 31.9126 97.525 32 97.9669 32C98.2615 32 98.5561 31.9586 98.8461 31.8712C99.1361 31.7837 99.3662 31.6732 99.5319 31.5397C99.6562 31.4431 99.716 31.3234 99.716 31.1807C99.716 31.0886 99.6884 31.0104 99.6332 30.9414C99.5779 30.8723 99.5089 30.8401 99.4214 30.8401C99.3524 30.8401 99.288 30.8631 99.2189 30.9045C98.8507 31.1485 98.4502 31.2728 98.0221 31.2728C97.594 31.2728 97.2626 31.1485 97.0371 30.8999C96.8115 30.6514 96.6919 30.3015 96.6873 29.8458H99.5503C99.6608 29.8458 99.7483 29.8136 99.8127 29.7492ZM97.1476 28.3453C97.3685 28.1243 97.6677 28.0138 98.0405 28.0138C98.3858 28.0138 98.6481 28.1243 98.8369 28.3453C99.0256 28.5662 99.113 28.8884 99.0992 29.3119H96.7241C96.7839 28.8884 96.9266 28.5662 97.1476 28.3453ZM102.018 30.2693L102.183 28.1611H103.104C103.385 28.1611 103.527 28.0369 103.527 27.7837C103.527 27.6778 103.495 27.595 103.426 27.5351C103.357 27.4753 103.265 27.4431 103.15 27.4431H102.238L102.312 26.4949C102.326 26.3614 102.289 26.2509 102.211 26.1726C102.133 26.0944 102.022 26.053 101.879 26.053C101.746 26.053 101.631 26.0944 101.539 26.1726C101.447 26.2509 101.396 26.3568 101.382 26.4857L101.309 27.4431H100.756C100.614 27.4431 100.508 27.4753 100.434 27.5397C100.36 27.6042 100.324 27.6962 100.324 27.8113C100.324 27.9218 100.356 28.0092 100.425 28.0691C100.494 28.1289 100.586 28.1611 100.71 28.1611H101.253L101.088 30.2969C101.083 30.3522 101.079 30.4304 101.079 30.5271C101.079 30.992 101.207 31.3556 101.465 31.6134C101.723 31.8712 102.087 32 102.551 32C102.851 32 103.062 31.9678 103.182 31.908C103.302 31.8481 103.362 31.7377 103.362 31.5858C103.362 31.4799 103.339 31.4017 103.297 31.3418C103.256 31.282 103.196 31.2544 103.122 31.2544C103.081 31.2544 103.021 31.259 102.947 31.2682C102.874 31.2774 102.8 31.282 102.726 31.282C102.501 31.282 102.321 31.2083 102.197 31.0656C102.073 30.9229 102.008 30.7112 102.008 30.435C102.008 30.3614 102.013 30.3061 102.018 30.2693ZM105.249 30.2693L105.415 28.1611H106.335C106.616 28.1611 106.759 28.0369 106.759 27.7837C106.759 27.6778 106.726 27.595 106.657 27.5351C106.588 27.4753 106.496 27.4431 106.381 27.4431H105.47L105.543 26.4949C105.557 26.3614 105.52 26.2509 105.442 26.1726C105.364 26.0944 105.253 26.053 105.111 26.053C104.977 26.053 104.862 26.0944 104.77 26.1726C104.678 26.2509 104.627 26.3568 104.614 26.4857L104.54 27.4431H103.988C103.845 27.4431 103.739 27.4753 103.665 27.5397C103.592 27.6042 103.555 27.6962 103.555 27.8113C103.555 27.9218 103.587 28.0092 103.656 28.0691C103.725 28.1289 103.817 28.1611 103.942 28.1611H104.485L104.319 30.2969C104.314 30.3522 104.31 30.4304 104.31 30.5271C104.31 30.992 104.439 31.3556 104.696 31.6134C104.954 31.8712 105.318 32 105.783 32C106.082 32 106.294 31.9678 106.413 31.908C106.533 31.8481 106.593 31.7377 106.593 31.5858C106.593 31.4799 106.57 31.4017 106.528 31.3418C106.487 31.282 106.427 31.2544 106.354 31.2544C106.312 31.2544 106.252 31.259 106.179 31.2682C106.105 31.2774 106.031 31.282 105.958 31.282C105.732 31.282 105.553 31.2083 105.428 31.0656C105.304 30.9229 105.24 30.7112 105.24 30.435C105.24 30.3614 105.244 30.3061 105.249 30.2693ZM111.118 29.7492C111.182 29.6847 111.214 29.5927 111.214 29.4684C111.214 28.7733 111.049 28.244 110.722 27.8804C110.395 27.5167 109.921 27.3326 109.309 27.3326C108.867 27.3326 108.476 27.4385 108.14 27.6456C107.803 27.8527 107.541 28.1473 107.352 28.5248C107.164 28.9022 107.072 29.3349 107.072 29.8182C107.072 30.2555 107.164 30.6376 107.343 30.969C107.523 31.3004 107.78 31.5536 108.112 31.7331C108.443 31.9126 108.83 32 109.272 32C109.566 32 109.861 31.9586 110.151 31.8712C110.441 31.7837 110.671 31.6732 110.837 31.5397C110.961 31.4431 111.021 31.3234 111.021 31.1807C111.021 31.0886 110.993 31.0104 110.938 30.9414C110.883 30.8723 110.814 30.8401 110.726 30.8401C110.657 30.8401 110.593 30.8631 110.524 30.9045C110.156 31.1485 109.755 31.2728 109.327 31.2728C108.899 31.2728 108.568 31.1485 108.342 30.8999C108.117 30.6514 107.997 30.3015 107.992 29.8458H110.855C110.966 29.8458 111.053 29.8136 111.118 29.7492ZM108.453 28.3453C108.673 28.1243 108.973 28.0138 109.346 28.0138C109.691 28.0138 109.953 28.1243 110.142 28.3453C110.331 28.5662 110.418 28.8884 110.404 29.3119H108.029C108.089 28.8884 108.232 28.5662 108.453 28.3453ZM115.058 27.4247C114.989 27.3648 114.892 27.3372 114.777 27.351L114.676 27.3602C114.013 27.4109 113.53 27.6686 113.221 28.1427L113.249 27.7653C113.253 27.6318 113.221 27.5259 113.148 27.4569C113.074 27.3878 112.977 27.351 112.853 27.351C112.724 27.351 112.609 27.3878 112.512 27.4615C112.416 27.5351 112.36 27.641 112.356 27.7745L112.052 31.5397C112.038 31.687 112.075 31.7975 112.158 31.8712C112.241 31.9448 112.351 31.9816 112.485 31.9816C112.618 31.9816 112.733 31.9448 112.825 31.8758C112.917 31.8067 112.968 31.6916 112.982 31.5397L113.157 29.4408C113.189 29.0495 113.304 28.7503 113.511 28.5478C113.718 28.3453 114.031 28.221 114.455 28.1796L114.703 28.1519C115.012 28.1289 115.164 27.9724 115.164 27.6916C115.164 27.5766 115.127 27.4845 115.058 27.4247Z" fill="#44FFD1"/>
<path d="M191.227 28.2346H119.767V29.1552H191.227V28.2346Z" fill="#44FFD1"/>
</svg>
