<svg width="9" height="9" viewBox="0 0 9 9" fill="none" xmlns="http://www.w3.org/2000/svg">
<path d="M5.62267 4.5L8.7651 1.35758C8.91425 1.20871 8.99812 1.00668 8.99828 0.795953C8.99853 0.585226 8.91499 0.383055 8.76608 0.233917C8.61717 0.0847775 8.41516 0.000887932 8.20448 0.00070183C7.99373 0.000515729 7.79156 0.0840485 7.64242 0.232924L4.5 3.37534L1.35758 0.232924C1.20844 0.0837851 1.00617 0 0.795251 0C0.584338 0 0.382062 0.0837851 0.232924 0.232924C0.0837851 0.382062 0 0.584338 0 0.795251C0 1.00617 0.0837851 1.20844 0.232924 1.35758L3.37534 4.5L0.232924 7.64242C0.0837851 7.79156 0 7.99383 0 8.20473C0 8.41565 0.0837851 8.61791 0.232924 8.76706C0.382062 8.91622 0.584338 9 0.795251 9C1.00617 9 1.20844 8.91622 1.35758 8.76706L4.5 5.62466L7.64242 8.76706C7.79156 8.91622 7.99383 9 8.20473 9C8.41565 9 8.61791 8.91622 8.76706 8.76706C8.91622 8.61791 9 8.41565 9 8.20473C9 7.99383 8.91622 7.79156 8.76706 7.64242L5.62267 4.5Z" fill="#44FFD1"/>
</svg>
